<svg width="415" height="102" viewBox="0 0 415 102" fill="none" xmlns="http://www.w3.org/2000/svg">
<path d="M0.4 83.11C0.473334 80.8367 0.51 78.2333 0.51 75.3C0.583334 72.2933 0.62 69.0667 0.62 65.62C0.62 62.1733 0.62 58.6167 0.62 54.95C0.62 51.21 0.62 47.47 0.62 43.73C0.62 40.21 0.62 36.7267 0.62 33.28C0.62 29.76 0.62 26.3867 0.62 23.16C0.62 19.86 0.583334 16.7433 0.51 13.81C0.51 10.8767 0.51 8.2 0.51 5.78L19.43 5.55999C20.0167 8.49333 20.6033 11.5733 21.19 14.8C21.7767 17.9533 22.4 21.2167 23.06 24.59C23.7933 27.9633 24.49 31.3367 25.15 34.71C25.81 38.01 26.47 41.2367 27.13 44.39C27.4967 46.2967 27.8633 48.13 28.23 49.89C28.67 51.65 29.0367 53.3733 29.33 55.06C29.6967 56.6733 30.0267 58.25 30.32 59.79C30.6867 61.2567 31.0167 62.65 31.31 63.97C31.6767 62.21 32.0433 60.4867 32.41 58.8C32.7767 57.04 33.1067 55.3533 33.4 53.74C33.7667 52.0533 34.1333 50.4033 34.5 48.79C34.8667 47.1767 35.2333 45.6 35.6 44.06C36.1867 40.9067 36.7733 37.9367 37.36 35.15C38.02 32.3633 38.6067 29.54 39.12 26.68C39.7067 23.7467 40.33 20.63 40.99 17.33C41.65 14.03 42.3467 10.3633 43.08 6.33H62.44C62.3667 8.01666 62.2933 10.2167 62.22 12.93C62.22 15.6433 62.22 18.6867 62.22 22.06C62.22 25.4333 62.22 29.0267 62.22 32.84C62.22 36.6533 62.22 40.54 62.22 44.5C62.22 48.3133 62.22 52.09 62.22 55.83C62.2933 59.4967 62.33 63.0533 62.33 66.5C62.4033 69.8733 62.44 72.99 62.44 75.85C62.5133 78.6367 62.55 81.0933 62.55 83.22L48.69 83C48.69 81.9733 48.69 80.8367 48.69 79.59C48.7633 78.3433 48.8 76.9867 48.8 75.52C48.8 73.98 48.8 72.4033 48.8 70.79C48.8 69.1033 48.8 67.3433 48.8 65.51C48.8 63.6033 48.8 61.6233 48.8 59.57C48.8 57.4433 48.8 55.28 48.8 53.08C48.8 50.88 48.8 48.68 48.8 46.48C48.8 44.2067 48.8 41.9333 48.8 39.66C48.8 37.3133 48.8 34.8933 48.8 32.4C48.36 34.38 47.8833 36.5067 47.37 38.78C46.8567 41.0533 46.3433 43.3633 45.83 45.71C45.3167 48.0567 44.8033 50.4767 44.29 52.97C43.7767 55.2433 43.2633 57.59 42.75 60.01C42.31 62.3567 41.8333 64.74 41.32 67.16C40.8067 69.58 40.2567 72.0367 39.67 74.53C39.1567 76.95 38.6433 79.37 38.13 81.79L24.05 81.24C23.4633 78.38 22.84 75.6667 22.18 73.1C21.5933 70.5333 21.0433 68.04 20.53 65.62C20.0167 63.2 19.5033 60.89 18.99 58.69C18.55 56.4167 18.11 54.2533 17.67 52.2C17.1567 50 16.68 47.8733 16.24 45.82C15.8 43.6933 15.3233 41.64 14.81 39.66C14.37 37.6067 13.93 35.6633 13.49 33.83C13.49 34.49 13.49 35.7367 13.49 37.57C13.49 39.4033 13.49 41.6033 13.49 44.17C13.5633 46.7367 13.6 49.56 13.6 52.64C13.6 54.84 13.6 57.1133 13.6 59.46C13.6733 61.8067 13.71 64.1533 13.71 66.5C13.71 68.7733 13.71 70.9367 13.71 72.99C13.71 75.0433 13.71 76.95 13.71 78.71C13.7833 80.3967 13.82 81.8633 13.82 83.11H0.4ZM86.041 84.1C83.401 84.1 81.201 83.5133 79.441 82.34C77.7544 81.0933 76.471 79.2967 75.591 76.95C74.7844 74.53 74.381 71.5233 74.381 67.93C74.381 66.61 74.381 64.9967 74.381 63.09C74.4544 61.11 74.491 58.8733 74.491 56.38C74.5644 53.8867 74.601 51.2467 74.601 48.46C74.6744 46.26 74.711 43.9867 74.711 41.64C74.7844 39.2933 74.821 36.9467 74.821 34.6C74.8944 32.18 74.931 29.87 74.931 27.67C74.931 25.47 74.931 23.4167 74.931 21.51L88.131 20.85C88.0577 22.6833 87.9477 24.7367 87.801 27.01C87.7277 29.21 87.6544 31.5567 87.581 34.05C87.5077 36.5433 87.3977 39.1467 87.251 41.86C87.1044 44.5733 86.9577 47.3967 86.811 50.33C86.7377 51.9433 86.6644 53.52 86.591 55.06C86.5177 56.6 86.4444 58.03 86.371 59.35C86.371 60.67 86.371 61.9533 86.371 63.2C86.371 64.3733 86.371 65.4367 86.371 66.39C86.371 68.15 86.481 69.6167 86.701 70.79C86.9944 71.9633 87.3977 72.8067 87.911 73.32C88.4244 73.8333 89.0844 74.09 89.891 74.09C90.991 74.09 92.0177 73.7233 92.971 72.99C93.9977 72.1833 94.9144 70.8633 95.721 69.03C96.5277 67.1967 97.1877 64.7033 97.701 61.55C98.2144 58.3967 98.471 54.4367 98.471 49.67L104.191 49.34C104.118 53.1533 103.861 56.82 103.421 60.34C102.981 63.86 102.321 67.0867 101.441 70.02C100.561 72.88 99.3877 75.3733 97.921 77.5C96.5277 79.5533 94.841 81.1667 92.861 82.34C90.881 83.5133 88.6077 84.1 86.041 84.1ZM99.571 83L98.581 70.79C98.581 67.49 98.5444 64.0067 98.471 60.34C98.471 56.6 98.471 53.0433 98.471 49.67C98.471 47.5433 98.471 45.0867 98.471 42.3C98.471 39.5133 98.4344 36.69 98.361 33.83C98.361 30.97 98.361 28.3667 98.361 26.02C98.361 23.6733 98.361 21.8767 98.361 20.63L111.561 20.74C111.488 23.16 111.378 25.5067 111.231 27.78C111.158 30.0533 111.048 32.2533 110.901 34.38C110.828 36.5067 110.754 38.5967 110.681 40.65C110.608 42.7033 110.534 44.6833 110.461 46.59C110.461 48.4233 110.461 50.1833 110.461 51.87C110.461 53.7767 110.461 55.9767 110.461 58.47C110.534 60.9633 110.608 63.5667 110.681 66.28C110.754 68.92 110.828 71.45 110.901 73.87C110.974 76.2167 111.011 78.1967 111.011 79.81C111.084 81.4233 111.121 82.4867 111.121 83H99.571ZM137.365 83.55C134.505 83.55 132.011 83.22 129.885 82.56C127.758 81.9 125.998 80.91 124.605 79.59C123.211 78.27 122.148 76.6933 121.415 74.86C120.755 72.9533 120.425 70.8267 120.425 68.48C120.425 67.6 120.461 66.72 120.535 65.84C120.608 64.96 120.718 64.0433 120.865 63.09L134.065 62.98C133.918 63.9333 133.771 64.8133 133.625 65.62C133.478 66.4267 133.405 67.2333 133.405 68.04C133.405 69.8 133.735 71.1933 134.395 72.22C135.128 73.1733 136.301 73.65 137.915 73.65C139.015 73.65 139.895 73.3933 140.555 72.88C141.288 72.3667 141.801 71.67 142.095 70.79C142.461 69.8367 142.645 68.81 142.645 67.71C142.645 65.95 142.278 64.5567 141.545 63.53C140.885 62.43 139.895 61.44 138.575 60.56C137.255 59.6067 135.641 58.5433 133.735 57.37C131.535 56.05 129.591 54.6933 127.905 53.3C126.218 51.9067 124.825 50.44 123.725 48.9C122.625 47.36 121.781 45.6367 121.195 43.73C120.608 41.75 120.315 39.5133 120.315 37.02C120.315 33.4267 121.121 30.4567 122.735 28.11C124.348 25.69 126.548 23.8933 129.335 22.72C132.121 21.4733 135.238 20.85 138.685 20.85C142.571 20.85 145.761 21.4733 148.255 22.72C150.821 23.9667 152.691 25.7267 153.865 28C155.111 30.2733 155.735 32.95 155.735 36.03C155.735 36.3967 155.698 36.8367 155.625 37.35C155.625 37.8633 155.588 38.3767 155.515 38.89C155.515 39.33 155.478 39.8433 155.405 40.43H142.095C142.315 39.77 142.461 39.11 142.535 38.45C142.608 37.7167 142.645 37.0567 142.645 36.47C142.645 34.8567 142.278 33.5 141.545 32.4C140.885 31.3 139.748 30.75 138.135 30.75C137.181 30.75 136.375 30.97 135.715 31.41C135.055 31.85 134.541 32.51 134.175 33.39C133.808 34.1967 133.625 35.1867 133.625 36.36C133.625 37.9733 133.845 39.2933 134.285 40.32C134.798 41.2733 135.568 42.1533 136.595 42.96C137.621 43.7667 138.905 44.6833 140.445 45.71C142.718 47.25 144.808 48.7167 146.715 50.11C148.621 51.43 150.271 52.86 151.665 54.4C153.058 55.8667 154.158 57.6267 154.965 59.68C155.771 61.66 156.175 64.1167 156.175 67.05C156.175 70.57 155.405 73.5767 153.865 76.07C152.325 78.49 150.161 80.36 147.375 81.68C144.588 82.9267 141.251 83.55 137.365 83.55Z" fill="#149954"/>
<path d="M181.324 84.1C178.391 84.1 175.861 83.6967 173.734 82.89C171.681 82.0833 170.031 80.91 168.784 79.37C167.538 77.83 166.621 75.96 166.034 73.76C165.448 71.4867 165.154 68.8833 165.154 65.95C165.154 63.4567 165.228 60.89 165.374 58.25C165.521 55.61 165.631 52.9333 165.704 50.22C165.924 47.4333 166.108 44.7933 166.254 42.3C166.401 39.7333 166.548 37.3133 166.694 35.04C166.841 32.6933 166.951 30.3833 167.024 28.11C167.098 25.8367 167.171 23.5267 167.244 21.18C167.318 18.8333 167.354 16.4133 167.354 13.92L181.984 13.81C181.691 17.2567 181.398 20.7033 181.104 24.15C180.884 27.5233 180.628 30.8233 180.334 34.05C180.114 37.2033 179.894 40.2467 179.674 43.18C179.528 46.04 179.381 48.7167 179.234 51.21C179.088 54.07 178.941 56.7467 178.794 59.24C178.721 61.7333 178.684 64.1167 178.684 66.39C178.684 68.0767 178.758 69.5433 178.904 70.79C179.124 72.0367 179.454 72.99 179.894 73.65C180.408 74.2367 181.178 74.53 182.204 74.53C183.231 74.53 184.074 74.1633 184.734 73.43C185.394 72.6233 185.871 71.4867 186.164 70.02C186.531 68.48 186.714 66.61 186.714 64.41C186.714 63.0167 186.678 61.5133 186.604 59.9C186.531 58.2867 186.421 56.6733 186.274 55.06C186.201 53.4467 186.054 51.7967 185.834 50.11L198.374 50.22C198.594 51.6867 198.778 53.1533 198.924 54.62C199.071 56.0867 199.181 57.5167 199.254 58.91C199.401 60.23 199.474 61.5133 199.474 62.76C199.474 67.2333 198.888 71.0833 197.714 74.31C196.541 77.4633 194.634 79.8833 191.994 81.57C189.354 83.2567 185.798 84.1 181.324 84.1ZM161.194 33.83L162.184 22.17C162.478 22.17 162.991 22.17 163.724 22.17C164.458 22.17 165.338 22.17 166.364 22.17C167.391 22.17 168.418 22.2067 169.444 22.28C170.471 22.28 171.461 22.28 172.414 22.28C173.368 22.28 174.174 22.28 174.834 22.28C176.008 22.28 177.548 22.28 179.454 22.28C181.361 22.2067 183.378 22.17 185.504 22.17C187.704 22.0967 189.758 22.06 191.664 22.06C193.644 22.06 195.258 22.06 196.504 22.06C197.751 21.9867 198.374 21.95 198.374 21.95L197.824 32.73C197.824 32.73 197.274 32.73 196.174 32.73C195.148 32.73 193.754 32.7667 191.994 32.84C190.308 32.84 188.474 32.8767 186.494 32.95C184.514 32.95 182.644 32.9867 180.884 33.06C179.124 33.06 177.658 33.06 176.484 33.06C174.944 33.06 173.294 33.1333 171.534 33.28C169.774 33.3533 168.088 33.4267 166.474 33.5C164.934 33.5733 163.651 33.6467 162.624 33.72C161.671 33.7933 161.194 33.83 161.194 33.83ZM233.731 84.1C232.631 83 231.787 81.5333 231.201 79.7C230.614 77.7933 230.174 75.7033 229.881 73.43C229.661 71.1567 229.514 68.81 229.441 66.39C229.441 63.8967 229.477 61.5133 229.551 59.24C229.624 56.8933 229.661 54.7667 229.661 52.86C229.661 51.4667 229.661 50.0733 229.661 48.68C229.661 47.2867 229.661 45.93 229.661 44.61C229.734 43.2167 229.771 41.8233 229.771 40.43C229.771 39.0367 229.771 37.6433 229.771 36.25C229.771 34.71 229.514 33.5733 229.001 32.84C228.561 32.1067 227.937 31.63 227.131 31.41C226.397 31.1167 225.627 30.97 224.821 30.97C223.354 30.97 222.144 31.4467 221.191 32.4C220.311 33.3533 219.871 34.7467 219.871 36.58C219.871 37.24 219.944 37.9733 220.091 38.78C220.237 39.5133 220.421 40.2467 220.641 40.98L208.431 43.4C208.137 42.2267 207.881 41.0533 207.661 39.88C207.514 38.7067 207.441 37.6433 207.441 36.69C207.441 33.5367 208.137 30.7867 209.531 28.44C210.924 26.0933 212.904 24.26 215.471 22.94C218.111 21.5467 221.374 20.85 225.261 20.85C228.781 20.85 231.641 21.4 233.841 22.5C236.041 23.5267 237.727 24.92 238.901 26.68C240.147 28.44 240.991 30.42 241.431 32.62C241.944 34.82 242.201 37.0933 242.201 39.44C242.201 42.08 242.164 44.72 242.091 47.36C242.017 50 241.981 52.64 241.981 55.28C241.981 57.8467 241.944 60.45 241.871 63.09C241.871 65.73 241.871 68.37 241.871 71.01C241.871 72.9167 242.054 74.7133 242.421 76.4C242.787 78.0133 243.411 79.5533 244.291 81.02L233.731 84.1ZM218.551 83.66C216.131 83.66 214.077 83.0733 212.391 81.9C210.704 80.7267 209.384 79.0767 208.431 76.95C207.477 74.8233 207.001 72.3667 207.001 69.58C207.001 65.6933 207.697 62.54 209.091 60.12C210.484 57.6267 212.317 55.5367 214.591 53.85C216.864 52.1633 219.247 50.5867 221.741 49.12C223.427 48.0933 224.857 46.9933 226.031 45.82C227.204 44.6467 228.121 43.29 228.781 41.75C229.441 40.1367 229.771 38.3033 229.771 36.25L235.381 39.44C235.014 42.52 234.391 45.0867 233.511 47.14C232.704 49.1933 231.641 50.9533 230.321 52.42C229.074 53.8867 227.534 55.28 225.701 56.6C224.307 57.6267 223.134 58.6533 222.181 59.68C221.301 60.6333 220.641 61.66 220.201 62.76C219.834 63.86 219.651 65.2167 219.651 66.83C219.651 67.8567 219.724 68.8467 219.871 69.8C220.091 70.68 220.457 71.4133 220.971 72C221.484 72.5133 222.181 72.77 223.061 72.77C224.161 72.77 225.077 72.4033 225.811 71.67C226.617 70.8633 227.314 69.69 227.901 68.15C228.487 66.5367 228.927 64.4833 229.221 61.99C229.514 59.4233 229.661 56.3433 229.661 52.75L234.611 45.38C234.537 49.8533 234.354 54.0333 234.061 57.92C233.767 61.8067 233.291 65.3267 232.631 68.48C232.044 71.6333 231.164 74.3467 229.991 76.62C228.817 78.82 227.277 80.5433 225.371 81.79C223.537 83.0367 221.264 83.66 218.551 83.66ZM268.864 101.26C266.371 101.26 264.134 101.003 262.154 100.49C260.174 100.05 258.451 99.3167 256.984 98.29C255.518 97.3367 254.234 96.1267 253.134 94.66L258.524 87.51C259.991 89.05 261.494 90.1867 263.034 90.92C264.574 91.7267 266.334 92.13 268.314 92.13C269.708 92.13 270.918 91.8367 271.944 91.25C273.044 90.7367 273.888 89.7833 274.474 88.39C275.061 87.07 275.354 85.31 275.354 83.11C275.354 82.45 275.354 81.79 275.354 81.13C275.354 80.3967 275.354 79.7 275.354 79.04C274.328 80.58 273.081 81.8267 271.614 82.78C270.148 83.66 268.461 84.1 266.554 84.1C263.621 84.1 261.128 83.11 259.074 81.13C257.021 79.0767 255.444 76.3267 254.344 72.88C253.758 70.9733 253.281 68.92 252.914 66.72C252.621 64.52 252.401 62.21 252.254 59.79C252.181 57.2967 252.144 54.73 252.144 52.09C252.144 49.45 252.218 46.8833 252.364 44.39C252.584 41.8967 252.914 39.55 253.354 37.35C253.868 35.15 254.491 33.0967 255.224 31.19C256.544 28.1833 258.341 25.7633 260.614 23.93C262.888 22.0233 265.601 21.07 268.754 21.07C270.954 21.07 272.861 21.6567 274.474 22.83C276.161 24.0033 277.554 25.9833 278.654 28.77C278.874 27.8167 279.094 26.8633 279.314 25.91C279.534 24.8833 279.754 23.8933 279.974 22.94L290.534 24.81C290.241 27.7433 289.948 30.53 289.654 33.17C289.434 35.81 289.251 38.6333 289.104 41.64C288.958 44.6467 288.884 48.24 288.884 52.42C288.884 55.7933 288.848 58.7267 288.774 61.22C288.774 63.7133 288.738 66.0233 288.664 68.15C288.664 70.2767 288.628 72.4033 288.554 74.53C288.554 76.5833 288.554 78.8933 288.554 81.46C288.554 84.1733 288.261 86.74 287.674 89.16C287.088 91.58 286.061 93.67 284.594 95.43C283.201 97.2633 281.221 98.6933 278.654 99.72C276.088 100.747 272.824 101.26 268.864 101.26ZM269.854 73.98C270.514 73.98 271.101 73.7967 271.614 73.43C272.201 73.0633 272.714 72.55 273.154 71.89C273.594 71.1567 273.961 70.35 274.254 69.47C274.621 68.2233 274.914 66.7567 275.134 65.07C275.354 63.3833 275.501 61.5133 275.574 59.46C275.721 57.3333 275.794 55.06 275.794 52.64C275.794 50.8067 275.794 49.12 275.794 47.58C275.794 45.9667 275.758 44.5 275.684 43.18C275.684 41.7867 275.611 40.5033 275.464 39.33C275.318 38.1567 275.134 37.0567 274.914 36.03C274.694 35.0033 274.401 34.1233 274.034 33.39C273.668 32.5833 273.191 31.9967 272.604 31.63C272.091 31.19 271.468 30.97 270.734 30.97C269.414 30.97 268.388 31.6667 267.654 33.06C266.994 34.38 266.518 36.25 266.224 38.67C266.078 40.43 265.931 42.4467 265.784 44.72C265.711 46.92 265.674 49.3033 265.674 51.87C265.674 53.63 265.674 55.3533 265.674 57.04C265.674 58.7267 265.674 60.34 265.674 61.88C265.748 63.3467 265.821 64.7033 265.894 65.95C266.041 67.5633 266.261 68.9933 266.554 70.24C266.848 71.4133 267.251 72.33 267.764 72.99C268.351 73.65 269.048 73.98 269.854 73.98Z" fill="#E4312B"/>
<path d="M300.598 82.89C300.744 81.2767 300.818 79.3333 300.818 77.06C300.891 74.7867 300.928 72.2567 300.928 69.47C301.001 66.6833 301.038 63.6767 301.038 60.45C301.111 57.2233 301.148 53.8133 301.148 50.22C301.148 47.2867 301.148 44.5367 301.148 41.97C301.148 39.33 301.111 36.7267 301.038 34.16C301.038 31.5933 301.038 28.9533 301.038 26.24C301.038 23.5267 301.001 20.5933 300.928 17.44C300.928 14.2133 300.928 10.6567 300.928 6.77H313.798C313.798 10.2167 313.798 13.4067 313.798 16.34C313.871 19.2733 313.908 22.06 313.908 24.7C313.908 27.34 313.908 29.9433 313.908 32.51C313.981 35.0033 314.018 37.6067 314.018 40.32C314.091 42.96 314.201 45.7467 314.348 48.68C314.348 51.98 314.348 55.28 314.348 58.58C314.421 61.88 314.458 65.07 314.458 68.15C314.531 71.1567 314.604 73.9433 314.678 76.51C314.751 79.0033 314.788 81.13 314.788 82.89H300.598ZM338.328 83.11L323.808 82.89C323.881 80.91 323.954 79.0033 324.028 77.17C324.174 75.3367 324.248 73.43 324.248 71.45C324.321 69.47 324.358 67.27 324.358 64.85C324.431 62.43 324.468 59.6433 324.468 56.49C324.468 54.5833 324.468 52.8233 324.468 51.21C324.468 49.5967 324.468 47.9467 324.468 46.26C324.468 44.5733 324.468 42.63 324.468 40.43C324.468 38.45 324.321 36.8367 324.028 35.59C323.808 34.27 323.404 33.3167 322.818 32.73C322.304 32.07 321.608 31.74 320.728 31.74C319.701 31.74 318.674 32.18 317.648 33.06C316.694 33.94 315.888 35.59 315.228 38.01C314.641 40.43 314.348 43.9867 314.348 48.68L309.728 53.96C309.728 50 309.874 46.3333 310.168 42.96C310.534 39.5867 311.084 36.58 311.818 33.94C312.551 31.2267 313.504 28.9533 314.678 27.12C315.851 25.2133 317.281 23.7833 318.968 22.83C320.654 21.8033 322.598 21.29 324.798 21.29C327.218 21.29 329.381 21.8033 331.288 22.83C333.268 23.8567 334.808 25.69 335.908 28.33C337.081 30.8967 337.668 34.6 337.668 39.44C337.668 41.86 337.668 43.95 337.668 45.71C337.668 47.3967 337.668 49.0467 337.668 50.66C337.668 52.2 337.668 53.9967 337.668 56.05C337.668 59.2033 337.668 62.0267 337.668 64.52C337.741 66.94 337.778 69.1767 337.778 71.23C337.851 73.2833 337.924 75.2633 337.998 77.17C338.144 79.0767 338.254 81.0567 338.328 83.11ZM387.418 84.1L373.338 85.31C373.411 83.4033 373.484 81.4233 373.558 79.37C373.631 77.2433 373.668 75.0433 373.668 72.77C373.741 70.4233 373.778 67.93 373.778 65.29C373.851 62.5767 373.888 59.6433 373.888 56.49C373.888 54.5833 373.888 52.6767 373.888 50.77C373.888 48.79 373.888 46.81 373.888 44.83C373.888 42.7767 373.888 40.6867 373.888 38.56C373.888 37.24 373.814 35.9933 373.668 34.82C373.594 33.6467 373.301 32.6933 372.788 31.96C372.348 31.2267 371.578 30.86 370.478 30.86C369.598 30.86 368.608 31.3367 367.508 32.29C366.481 33.17 365.601 34.8933 364.868 37.46C364.134 39.9533 363.768 43.6933 363.768 48.68L359.148 53.96C359.148 49.78 359.294 45.9667 359.588 42.52C359.954 39 360.504 35.8833 361.238 33.17C361.971 30.3833 362.924 28.0733 364.098 26.24C365.271 24.3333 366.701 22.9033 368.388 21.95C370.074 20.9233 372.018 20.41 374.218 20.41C376.638 20.41 378.801 20.9233 380.708 21.95C382.688 22.9033 384.228 24.6633 385.328 27.23C386.501 29.7233 387.088 33.3167 387.088 38.01C387.088 39.8433 387.088 41.53 387.088 43.07C387.088 44.61 387.088 46.0767 387.088 47.47C387.088 48.8633 387.088 50.2567 387.088 51.65C387.088 52.97 387.088 54.4367 387.088 56.05C387.088 59.2033 387.088 62.0633 387.088 64.63C387.161 67.1967 387.198 69.58 387.198 71.78C387.198 73.98 387.198 76.1067 387.198 78.16C387.271 80.14 387.344 82.12 387.418 84.1ZM349.908 82.89C349.981 80.91 350.054 78.82 350.128 76.62C350.201 74.42 350.274 72.0733 350.348 69.58C350.421 67.0867 350.458 64.3733 350.458 61.44C350.531 58.4333 350.604 55.1333 350.678 51.54C350.678 46.6267 350.641 42.3 350.568 38.56C350.568 34.7467 350.531 31.52 350.458 28.88C350.458 26.1667 350.421 24.0767 350.348 22.61L362.228 22.28C362.301 23.0133 362.374 24.15 362.448 25.69C362.594 27.23 362.704 29.1367 362.778 31.41C362.924 33.6833 363.071 36.25 363.218 39.11C363.438 41.97 363.621 45.16 363.768 48.68C363.768 53.1533 363.804 57.48 363.878 61.66C363.951 65.84 364.024 69.7267 364.098 73.32C364.171 76.84 364.208 80.03 364.208 82.89H349.908ZM414.275 83L399.425 82.78C399.572 81.02 399.682 79.0033 399.755 76.73C399.902 74.3833 400.012 71.8533 400.085 69.14C400.158 66.4267 400.195 63.6033 400.195 60.67C400.268 57.6633 400.305 54.62 400.305 51.54C400.305 46.92 400.232 42.6667 400.085 38.78C400.012 34.82 399.902 31.3733 399.755 28.44C399.608 25.5067 399.498 23.3433 399.425 21.95H413.945C413.872 23.1233 413.798 25.2133 413.725 28.22C413.652 31.1533 413.578 34.6733 413.505 38.78C413.505 42.8133 413.505 47.1033 413.505 51.65C413.505 54.51 413.505 57.37 413.505 60.23C413.578 63.09 413.652 65.8767 413.725 68.59C413.798 71.3033 413.872 73.9067 413.945 76.4C414.092 78.82 414.202 81.02 414.275 83ZM413.725 12.82L399.975 13.7L399.645 1.16L413.835 0.389995L413.725 12.82Z" fill="black"/>
</svg>
