<svg width="482" height="119" viewBox="0 0 482 119" fill="none" xmlns="http://www.w3.org/2000/svg">
<path d="M0.12 97.128C0.205334 94.4827 0.248 91.4533 0.248 88.04C0.333334 84.5413 0.376 80.7867 0.376 76.776C0.376 72.7653 0.376 68.6267 0.376 64.36C0.376 60.008 0.376 55.656 0.376 51.304C0.376 47.208 0.376 43.1547 0.376 39.144C0.376 35.048 0.376 31.1227 0.376 27.368C0.376 23.528 0.333334 19.9013 0.248 16.488C0.248 13.0747 0.248 9.96 0.248 7.144L22.264 6.88799C22.9467 10.3013 23.6293 13.8853 24.312 17.64C24.9947 21.3093 25.72 25.1067 26.488 29.032C27.3413 32.9573 28.152 36.8827 28.92 40.808C29.688 44.648 30.456 48.4027 31.224 52.072C31.6507 54.2907 32.0773 56.424 32.504 58.472C33.016 60.52 33.4427 62.5253 33.784 64.488C34.2107 66.3653 34.5947 68.2 34.936 69.992C35.3627 71.6987 35.7467 73.32 36.088 74.856C36.5147 72.808 36.9413 70.8027 37.368 68.84C37.7947 66.792 38.1787 64.8293 38.52 62.952C38.9467 60.9893 39.3733 59.0693 39.8 57.192C40.2267 55.3147 40.6533 53.48 41.08 51.688C41.7627 48.0187 42.4453 44.5627 43.128 41.32C43.896 38.0773 44.5787 34.792 45.176 31.464C45.8587 28.0507 46.584 24.424 47.352 20.584C48.12 16.744 48.9307 12.4773 49.784 7.784H72.312C72.2267 9.74666 72.1413 12.3067 72.056 15.464C72.056 18.6213 72.056 22.1627 72.056 26.088C72.056 30.0133 72.056 34.1947 72.056 38.632C72.056 43.0693 72.056 47.592 72.056 52.2C72.056 56.6373 72.056 61.032 72.056 65.384C72.1413 69.6507 72.184 73.7893 72.184 77.8C72.2693 81.7253 72.312 85.352 72.312 88.68C72.3973 91.9227 72.44 94.7813 72.44 97.256L56.312 97C56.312 95.8053 56.312 94.4827 56.312 93.032C56.3973 91.5813 56.44 90.0027 56.44 88.296C56.44 86.504 56.44 84.6693 56.44 82.792C56.44 80.8293 56.44 78.7813 56.44 76.648C56.44 74.4293 56.44 72.1253 56.44 69.736C56.44 67.2613 56.44 64.744 56.44 62.184C56.44 59.624 56.44 57.064 56.44 54.504C56.44 51.8587 56.44 49.2133 56.44 46.568C56.44 43.8373 56.44 41.0213 56.44 38.12C55.928 40.424 55.3733 42.8987 54.776 45.544C54.1787 48.1893 53.5813 50.8773 52.984 53.608C52.3867 56.3387 51.7893 59.1547 51.192 62.056C50.5947 64.7013 49.9973 67.432 49.4 70.248C48.888 72.9787 48.3333 75.752 47.736 78.568C47.1387 81.384 46.4987 84.2427 45.816 87.144C45.2187 89.96 44.6213 92.776 44.024 95.592L27.64 94.952C26.9573 91.624 26.232 88.4667 25.464 85.48C24.7813 82.4933 24.1413 79.592 23.544 76.776C22.9467 73.96 22.3493 71.272 21.752 68.712C21.24 66.0667 20.728 63.5493 20.216 61.16C19.6187 58.6 19.064 56.1253 18.552 53.736C18.04 51.2613 17.4853 48.872 16.888 46.568C16.376 44.1787 15.864 41.9173 15.352 39.784C15.352 40.552 15.352 42.0027 15.352 44.136C15.352 46.2693 15.352 48.8293 15.352 51.816C15.4373 54.8027 15.48 58.088 15.48 61.672C15.48 64.232 15.48 66.8773 15.48 69.608C15.5653 72.3387 15.608 75.0693 15.608 77.8C15.608 80.4453 15.608 82.9627 15.608 85.352C15.608 87.7413 15.608 89.96 15.608 92.008C15.6933 93.9707 15.736 95.6773 15.736 97.128H0.12ZM99.775 98.28C96.703 98.28 94.143 97.5973 92.095 96.232C90.1323 94.7813 88.639 92.6907 87.615 89.96C86.6763 87.144 86.207 83.6453 86.207 79.464C86.207 77.928 86.207 76.0507 86.207 73.832C86.2923 71.528 86.335 68.9253 86.335 66.024C86.4203 63.1227 86.463 60.0507 86.463 56.808C86.5483 54.248 86.591 51.6027 86.591 48.872C86.6763 46.1413 86.719 43.4107 86.719 40.68C86.8043 37.864 86.847 35.176 86.847 32.616C86.847 30.056 86.847 27.6667 86.847 25.448L102.207 24.68C102.122 26.8133 101.994 29.2027 101.823 31.848C101.738 34.408 101.652 37.1387 101.567 40.04C101.482 42.9413 101.354 45.9707 101.183 49.128C101.012 52.2853 100.842 55.5707 100.671 58.984C100.586 60.8613 100.5 62.696 100.415 64.488C100.33 66.28 100.244 67.944 100.159 69.48C100.159 71.016 100.159 72.5093 100.159 73.96C100.159 75.3253 100.159 76.5627 100.159 77.672C100.159 79.72 100.287 81.4267 100.543 82.792C100.884 84.1573 101.354 85.1387 101.951 85.736C102.548 86.3333 103.316 86.632 104.255 86.632C105.535 86.632 106.73 86.2053 107.839 85.352C109.034 84.4133 110.1 82.8773 111.039 80.744C111.978 78.6107 112.746 75.7093 113.343 72.04C113.94 68.3707 114.239 63.7627 114.239 58.216L120.895 57.832C120.81 62.2693 120.511 66.536 119.999 70.632C119.487 74.728 118.719 78.4827 117.695 81.896C116.671 85.224 115.306 88.1253 113.599 90.6C111.978 92.9893 110.015 94.8667 107.711 96.232C105.407 97.5973 102.762 98.28 99.775 98.28ZM115.519 97L114.367 82.792C114.367 78.952 114.324 74.8987 114.239 70.632C114.239 66.28 114.239 62.1413 114.239 58.216C114.239 55.7413 114.239 52.8827 114.239 49.64C114.239 46.3973 114.196 43.112 114.111 39.784C114.111 36.456 114.111 33.4267 114.111 30.696C114.111 27.9653 114.111 25.8747 114.111 24.424L129.471 24.552C129.386 27.368 129.258 30.0987 129.087 32.744C129.002 35.3893 128.874 37.9493 128.703 40.424C128.618 42.8987 128.532 45.3307 128.447 47.72C128.362 50.1093 128.276 52.4133 128.191 54.632C128.191 56.7653 128.191 58.8133 128.191 60.776C128.191 62.9947 128.191 65.5547 128.191 68.456C128.276 71.3573 128.362 74.3867 128.447 77.544C128.532 80.616 128.618 83.56 128.703 86.376C128.788 89.1067 128.831 91.4107 128.831 93.288C128.916 95.1653 128.959 96.4027 128.959 97H115.519ZM159.497 97.64C156.169 97.64 153.268 97.256 150.793 96.488C148.318 95.72 146.27 94.568 144.649 93.032C143.028 91.496 141.79 89.6613 140.937 87.528C140.169 85.3093 139.785 82.8347 139.785 80.104C139.785 79.08 139.828 78.056 139.913 77.032C139.998 76.008 140.126 74.9413 140.297 73.832L155.657 73.704C155.486 74.8133 155.316 75.8373 155.145 76.776C154.974 77.7147 154.889 78.6533 154.889 79.592C154.889 81.64 155.273 83.2613 156.041 84.456C156.894 85.5653 158.26 86.12 160.137 86.12C161.417 86.12 162.441 85.8213 163.209 85.224C164.062 84.6267 164.66 83.816 165.001 82.792C165.428 81.6827 165.641 80.488 165.641 79.208C165.641 77.16 165.214 75.5387 164.361 74.344C163.593 73.064 162.441 71.912 160.905 70.888C159.369 69.7787 157.492 68.5413 155.273 67.176C152.713 65.64 150.452 64.0613 148.489 62.44C146.526 60.8187 144.905 59.112 143.625 57.32C142.345 55.528 141.364 53.5227 140.681 51.304C139.998 49 139.657 46.3973 139.657 43.496C139.657 39.3147 140.596 35.8587 142.473 33.128C144.35 30.312 146.91 28.2213 150.153 26.856C153.396 25.4053 157.022 24.68 161.033 24.68C165.556 24.68 169.268 25.4053 172.169 26.856C175.156 28.3067 177.332 30.3547 178.697 33C180.148 35.6453 180.873 38.76 180.873 42.344C180.873 42.7707 180.83 43.2827 180.745 43.88C180.745 44.4773 180.702 45.0747 180.617 45.672C180.617 46.184 180.574 46.7813 180.489 47.464H165.001C165.257 46.696 165.428 45.928 165.513 45.16C165.598 44.3067 165.641 43.5387 165.641 42.856C165.641 40.9787 165.214 39.4 164.361 38.12C163.593 36.84 162.27 36.2 160.393 36.2C159.284 36.2 158.345 36.456 157.577 36.968C156.809 37.48 156.212 38.248 155.785 39.272C155.358 40.2107 155.145 41.3627 155.145 42.728C155.145 44.6053 155.401 46.1413 155.913 47.336C156.51 48.4453 157.406 49.4693 158.601 50.408C159.796 51.3467 161.289 52.4133 163.081 53.608C165.726 55.4 168.158 57.1067 170.377 58.728C172.596 60.264 174.516 61.928 176.137 63.72C177.758 65.4267 179.038 67.4747 179.977 69.864C180.916 72.168 181.385 75.0267 181.385 78.44C181.385 82.536 180.489 86.0347 178.697 88.936C176.905 91.752 174.388 93.928 171.145 95.464C167.902 96.9147 164.02 97.64 159.497 97.64Z" fill="#149954"/>
<path d="M210.65 98.28C207.237 98.28 204.293 97.8107 201.818 96.872C199.429 95.9333 197.509 94.568 196.058 92.776C194.607 90.984 193.541 88.808 192.858 86.248C192.175 83.6027 191.834 80.5733 191.834 77.16C191.834 74.2587 191.919 71.272 192.09 68.2C192.261 65.128 192.389 62.0133 192.474 58.856C192.73 55.6133 192.943 52.5413 193.114 49.64C193.285 46.6533 193.455 43.8373 193.626 41.192C193.797 38.4613 193.925 35.7733 194.01 33.128C194.095 30.4827 194.181 27.7947 194.266 25.064C194.351 22.3333 194.394 19.5173 194.394 16.616L211.418 16.488C211.077 20.4987 210.735 24.5093 210.394 28.52C210.138 32.4453 209.839 36.2853 209.498 40.04C209.242 43.7093 208.986 47.2507 208.73 50.664C208.559 53.992 208.389 57.1067 208.218 60.008C208.047 63.336 207.877 66.4507 207.706 69.352C207.621 72.2533 207.578 75.0267 207.578 77.672C207.578 79.6347 207.663 81.3413 207.834 82.792C208.09 84.2427 208.474 85.352 208.986 86.12C209.583 86.8027 210.479 87.144 211.674 87.144C212.869 87.144 213.85 86.7173 214.618 85.864C215.386 84.9253 215.941 83.6027 216.282 81.896C216.709 80.104 216.922 77.928 216.922 75.368C216.922 73.7467 216.879 71.9973 216.794 70.12C216.709 68.2427 216.581 66.3653 216.41 64.488C216.325 62.6107 216.154 60.6907 215.898 58.728L230.49 58.856C230.746 60.5627 230.959 62.2693 231.13 63.976C231.301 65.6827 231.429 67.3467 231.514 68.968C231.685 70.504 231.77 71.9973 231.77 73.448C231.77 78.6533 231.087 83.1333 229.722 86.888C228.357 90.5573 226.138 93.3733 223.066 95.336C219.994 97.2987 215.855 98.28 210.65 98.28ZM187.226 39.784L188.378 26.216C188.719 26.216 189.317 26.216 190.17 26.216C191.023 26.216 192.047 26.216 193.242 26.216C194.437 26.216 195.631 26.2587 196.826 26.344C198.021 26.344 199.173 26.344 200.282 26.344C201.391 26.344 202.33 26.344 203.098 26.344C204.463 26.344 206.255 26.344 208.474 26.344C210.693 26.2587 213.039 26.216 215.514 26.216C218.074 26.1307 220.463 26.088 222.682 26.088C224.986 26.088 226.863 26.088 228.314 26.088C229.765 26.0027 230.49 25.96 230.49 25.96L229.85 38.504C229.85 38.504 229.21 38.504 227.93 38.504C226.735 38.504 225.114 38.5467 223.066 38.632C221.103 38.632 218.97 38.6747 216.666 38.76C214.362 38.76 212.186 38.8027 210.138 38.888C208.09 38.888 206.383 38.888 205.018 38.888C203.226 38.888 201.306 38.9733 199.258 39.144C197.21 39.2293 195.247 39.3147 193.37 39.4C191.578 39.4853 190.085 39.5707 188.89 39.656C187.781 39.7413 187.226 39.784 187.226 39.784ZM271.632 98.28C270.352 97 269.371 95.2933 268.688 93.16C268.005 90.9413 267.493 88.5093 267.152 85.864C266.896 83.2187 266.725 80.488 266.64 77.672C266.64 74.7707 266.683 71.9973 266.768 69.352C266.853 66.6213 266.896 64.1467 266.896 61.928C266.896 60.3067 266.896 58.6853 266.896 57.064C266.896 55.4427 266.896 53.864 266.896 52.328C266.981 50.7067 267.024 49.0853 267.024 47.464C267.024 45.8427 267.024 44.2213 267.024 42.6C267.024 40.808 266.725 39.4853 266.128 38.632C265.616 37.7787 264.891 37.224 263.952 36.968C263.099 36.6267 262.203 36.456 261.264 36.456C259.557 36.456 258.149 37.0107 257.04 38.12C256.016 39.2293 255.504 40.8507 255.504 42.984C255.504 43.752 255.589 44.6053 255.76 45.544C255.931 46.3973 256.144 47.2507 256.4 48.104L242.192 50.92C241.851 49.5547 241.552 48.1893 241.296 46.824C241.125 45.4587 241.04 44.2213 241.04 43.112C241.04 39.4427 241.851 36.2427 243.472 33.512C245.093 30.7813 247.397 28.648 250.384 27.112C253.456 25.4907 257.253 24.68 261.776 24.68C265.872 24.68 269.2 25.32 271.76 26.6C274.32 27.7947 276.283 29.416 277.648 31.464C279.099 33.512 280.08 35.816 280.592 38.376C281.189 40.936 281.488 43.5813 281.488 46.312C281.488 49.384 281.445 52.456 281.36 55.528C281.275 58.6 281.232 61.672 281.232 64.744C281.232 67.7307 281.189 70.76 281.104 73.832C281.104 76.904 281.104 79.976 281.104 83.048C281.104 85.2667 281.317 87.3573 281.744 89.32C282.171 91.1973 282.896 92.9893 283.92 94.696L271.632 98.28ZM253.968 97.768C251.152 97.768 248.763 97.0853 246.8 95.72C244.837 94.3547 243.301 92.4347 242.192 89.96C241.083 87.4853 240.528 84.6267 240.528 81.384C240.528 76.8613 241.339 73.192 242.96 70.376C244.581 67.4747 246.715 65.0427 249.36 63.08C252.005 61.1173 254.779 59.2827 257.68 57.576C259.643 56.3813 261.307 55.1013 262.672 53.736C264.037 52.3707 265.104 50.792 265.872 49C266.64 47.1227 267.024 44.9893 267.024 42.6L273.552 46.312C273.125 49.896 272.4 52.8827 271.376 55.272C270.437 57.6613 269.2 59.7093 267.664 61.416C266.213 63.1227 264.421 64.744 262.288 66.28C260.667 67.4747 259.301 68.6693 258.192 69.864C257.168 70.9733 256.4 72.168 255.888 73.448C255.461 74.728 255.248 76.3067 255.248 78.184C255.248 79.3787 255.333 80.5307 255.504 81.64C255.76 82.664 256.187 83.5173 256.784 84.2C257.381 84.7973 258.192 85.096 259.216 85.096C260.496 85.096 261.563 84.6693 262.416 83.816C263.355 82.8773 264.165 81.512 264.848 79.72C265.531 77.8427 266.043 75.4533 266.384 72.552C266.725 69.5653 266.896 65.9813 266.896 61.8L272.656 53.224C272.571 58.4293 272.357 63.2933 272.016 67.816C271.675 72.3387 271.12 76.4347 270.352 80.104C269.669 83.7733 268.645 86.9307 267.28 89.576C265.915 92.136 264.123 94.1413 261.904 95.592C259.771 97.0427 257.125 97.768 253.968 97.768ZM312.515 118.248C309.614 118.248 307.011 117.949 304.707 117.352C302.403 116.84 300.398 115.987 298.691 114.792C296.984 113.683 295.491 112.275 294.211 110.568L300.483 102.248C302.19 104.04 303.939 105.363 305.731 106.216C307.523 107.155 309.571 107.624 311.875 107.624C313.496 107.624 314.904 107.283 316.099 106.6C317.379 106.003 318.36 104.893 319.043 103.272C319.726 101.736 320.067 99.688 320.067 97.128C320.067 96.36 320.067 95.592 320.067 94.824C320.067 93.9707 320.067 93.16 320.067 92.392C318.872 94.184 317.422 95.6347 315.715 96.744C314.008 97.768 312.046 98.28 309.827 98.28C306.414 98.28 303.512 97.128 301.123 94.824C298.734 92.4347 296.899 89.2347 295.619 85.224C294.936 83.0053 294.382 80.616 293.955 78.056C293.614 75.496 293.358 72.808 293.187 69.992C293.102 67.0907 293.059 64.104 293.059 61.032C293.059 57.96 293.144 54.9733 293.315 52.072C293.571 49.1707 293.955 46.44 294.467 43.88C295.064 41.32 295.79 38.9307 296.643 36.712C298.179 33.2133 300.27 30.3973 302.915 28.264C305.56 26.0453 308.718 24.936 312.387 24.936C314.947 24.936 317.166 25.6187 319.043 26.984C321.006 28.3493 322.627 30.6533 323.907 33.896C324.163 32.7867 324.419 31.6773 324.675 30.568C324.931 29.3733 325.187 28.2213 325.443 27.112L337.731 29.288C337.39 32.7013 337.048 35.944 336.707 39.016C336.451 42.088 336.238 45.3733 336.067 48.872C335.896 52.3707 335.811 56.552 335.811 61.416C335.811 65.3413 335.768 68.7547 335.683 71.656C335.683 74.5573 335.64 77.2453 335.555 79.72C335.555 82.1947 335.512 84.6693 335.427 87.144C335.427 89.5333 335.427 92.2213 335.427 95.208C335.427 98.3653 335.086 101.352 334.403 104.168C333.72 106.984 332.526 109.416 330.819 111.464C329.198 113.597 326.894 115.261 323.907 116.456C320.92 117.651 317.123 118.248 312.515 118.248ZM313.667 86.504C314.435 86.504 315.118 86.2907 315.715 85.864C316.398 85.4373 316.995 84.84 317.507 84.072C318.019 83.2187 318.446 82.28 318.787 81.256C319.214 79.8053 319.555 78.0987 319.811 76.136C320.067 74.1733 320.238 71.9973 320.323 69.608C320.494 67.1333 320.579 64.488 320.579 61.672C320.579 59.5387 320.579 57.576 320.579 55.784C320.579 53.9067 320.536 52.2 320.451 50.664C320.451 49.0427 320.366 47.5493 320.195 46.184C320.024 44.8187 319.811 43.5387 319.555 42.344C319.299 41.1493 318.958 40.1253 318.531 39.272C318.104 38.3333 317.55 37.6507 316.867 37.224C316.27 36.712 315.544 36.456 314.691 36.456C313.155 36.456 311.96 37.2667 311.107 38.888C310.339 40.424 309.784 42.6 309.443 45.416C309.272 47.464 309.102 49.8107 308.931 52.456C308.846 55.016 308.803 57.7893 308.803 60.776C308.803 62.824 308.803 64.8293 308.803 66.792C308.803 68.7547 308.803 70.632 308.803 72.424C308.888 74.1307 308.974 75.7093 309.059 77.16C309.23 79.0373 309.486 80.7013 309.827 82.152C310.168 83.5173 310.638 84.584 311.235 85.352C311.918 86.12 312.728 86.504 313.667 86.504Z" fill="black"/>
<path d="M349.441 96.872C349.612 94.9947 349.697 92.7333 349.697 90.088C349.782 87.4427 349.825 84.4987 349.825 81.256C349.91 78.0133 349.953 74.5147 349.953 70.76C350.038 67.0053 350.081 63.0373 350.081 58.856C350.081 55.4427 350.081 52.2427 350.081 49.256C350.081 46.184 350.038 43.1547 349.953 40.168C349.953 37.1813 349.953 34.1093 349.953 30.952C349.953 27.7947 349.91 24.3813 349.825 20.712C349.825 16.9573 349.825 12.8187 349.825 8.296H364.801C364.801 12.3067 364.801 16.0187 364.801 19.432C364.886 22.8453 364.929 26.088 364.929 29.16C364.929 32.232 364.929 35.2613 364.929 38.248C365.014 41.1493 365.057 44.1787 365.057 47.336C365.142 50.408 365.27 53.6507 365.441 57.064C365.441 60.904 365.441 64.744 365.441 68.584C365.526 72.424 365.569 76.136 365.569 79.72C365.654 83.2187 365.74 86.4613 365.825 89.448C365.91 92.3493 365.953 94.824 365.953 96.872H349.441ZM393.345 97.128L376.449 96.872C376.534 94.568 376.62 92.3493 376.705 90.216C376.876 88.0827 376.961 85.864 376.961 83.56C377.046 81.256 377.089 78.696 377.089 75.88C377.174 73.064 377.217 69.8213 377.217 66.152C377.217 63.9333 377.217 61.8853 377.217 60.008C377.217 58.1307 377.217 56.2107 377.217 54.248C377.217 52.2853 377.217 50.024 377.217 47.464C377.217 45.16 377.046 43.2827 376.705 41.832C376.449 40.296 375.98 39.1867 375.297 38.504C374.7 37.736 373.889 37.352 372.865 37.352C371.67 37.352 370.476 37.864 369.281 38.888C368.172 39.912 367.233 41.832 366.465 44.648C365.782 47.464 365.441 51.6027 365.441 57.064L360.065 63.208C360.065 58.6 360.236 54.3333 360.577 50.408C361.004 46.4827 361.644 42.984 362.497 39.912C363.35 36.7547 364.46 34.1093 365.825 31.976C367.19 29.7573 368.854 28.0933 370.817 26.984C372.78 25.7893 375.041 25.192 377.601 25.192C380.417 25.192 382.934 25.7893 385.153 26.984C387.457 28.1787 389.249 30.312 390.529 33.384C391.894 36.3707 392.577 40.68 392.577 46.312C392.577 49.128 392.577 51.56 392.577 53.608C392.577 55.5707 392.577 57.4907 392.577 59.368C392.577 61.16 392.577 63.2507 392.577 65.64C392.577 69.3093 392.577 72.5947 392.577 75.496C392.662 78.312 392.705 80.9147 392.705 83.304C392.79 85.6933 392.876 87.9973 392.961 90.216C393.132 92.4347 393.26 94.7387 393.345 97.128ZM450.468 98.28L434.084 99.688C434.169 97.4693 434.255 95.1653 434.34 92.776C434.425 90.3013 434.468 87.7413 434.468 85.096C434.553 82.3653 434.596 79.464 434.596 76.392C434.681 73.2347 434.724 69.8213 434.724 66.152C434.724 63.9333 434.724 61.7147 434.724 59.496C434.724 57.192 434.724 54.888 434.724 52.584C434.724 50.1947 434.724 47.7627 434.724 45.288C434.724 43.752 434.639 42.3013 434.468 40.936C434.383 39.5707 434.041 38.4613 433.444 37.608C432.932 36.7547 432.036 36.328 430.756 36.328C429.732 36.328 428.58 36.8827 427.3 37.992C426.105 39.016 425.081 41.0213 424.228 44.008C423.375 46.9093 422.948 51.2613 422.948 57.064L417.572 63.208C417.572 58.344 417.743 53.9067 418.084 49.896C418.511 45.8 419.151 42.1733 420.004 39.016C420.857 35.7733 421.967 33.0853 423.332 30.952C424.697 28.7333 426.361 27.0693 428.324 25.96C430.287 24.7653 432.548 24.168 435.108 24.168C437.924 24.168 440.441 24.7653 442.66 25.96C444.964 27.0693 446.756 29.1173 448.036 32.104C449.401 35.0053 450.084 39.1867 450.084 44.648C450.084 46.7813 450.084 48.744 450.084 50.536C450.084 52.328 450.084 54.0347 450.084 55.656C450.084 57.2773 450.084 58.8987 450.084 60.52C450.084 62.056 450.084 63.7627 450.084 65.64C450.084 69.3093 450.084 72.6373 450.084 75.624C450.169 78.6107 450.212 81.384 450.212 83.944C450.212 86.504 450.212 88.9787 450.212 91.368C450.297 93.672 450.383 95.976 450.468 98.28ZM406.82 96.872C406.905 94.568 406.991 92.136 407.076 89.576C407.161 87.016 407.247 84.2853 407.332 81.384C407.417 78.4827 407.46 75.3253 407.46 71.912C407.545 68.4133 407.631 64.5733 407.716 60.392C407.716 54.6747 407.673 49.64 407.588 45.288C407.588 40.8507 407.545 37.096 407.46 34.024C407.46 30.8667 407.417 28.4347 407.332 26.728L421.156 26.344C421.241 27.1973 421.327 28.52 421.412 30.312C421.583 32.104 421.711 34.3227 421.796 36.968C421.967 39.6133 422.137 42.6 422.308 45.928C422.564 49.256 422.777 52.968 422.948 57.064C422.948 62.2693 422.991 67.304 423.076 72.168C423.161 77.032 423.247 81.5547 423.332 85.736C423.417 89.832 423.46 93.544 423.46 96.872H406.82ZM481.72 97L464.44 96.744C464.611 94.696 464.739 92.3493 464.824 89.704C464.995 86.9733 465.123 84.0293 465.208 80.872C465.293 77.7147 465.336 74.4293 465.336 71.016C465.421 67.5173 465.464 63.976 465.464 60.392C465.464 55.016 465.379 50.0667 465.208 45.544C465.123 40.936 464.995 36.9253 464.824 33.512C464.653 30.0987 464.525 27.5813 464.44 25.96H481.336C481.251 27.3253 481.165 29.7573 481.08 33.256C480.995 36.6693 480.909 40.7653 480.824 45.544C480.824 50.2373 480.824 55.2293 480.824 60.52C480.824 63.848 480.824 67.176 480.824 70.504C480.909 73.832 480.995 77.0747 481.08 80.232C481.165 83.3893 481.251 86.4187 481.336 89.32C481.507 92.136 481.635 94.696 481.72 97ZM481.08 15.336L465.08 16.36L464.696 1.768L481.208 0.871994L481.08 15.336Z" fill="#E4312B"/>
</svg>
